<?xml version="1.0" encoding="iso-8859-1"?>
<!-- Generator: Adobe Illustrator 19.0.0, SVG Export Plug-In . SVG Version: 6.00 Build 0)  -->
<svg version="1.1" id="Capa_1" xmlns="http://www.w3.org/2000/svg" xmlns:xlink="http://www.w3.org/1999/xlink" x="0px" y="0px"
	 viewBox="0 0 398.487 398.487" style="enable-background:new 0 0 398.487 398.487;" xml:space="preserve">
<g>
	<g>
		<path d="M343.084,193.68c-1.734-52.151-31.544-99.284-77.92-123.2c3.679-6.957,6.192-14.47,7.44-22.24
			c2.347-13.264-2.239-26.809-12.16-35.92C252.865,4.642,242.59,0.222,231.804,0c-12.452,0.685-24.165,6.126-32.72,15.2
			c-8.555-9.074-20.268-14.515-32.72-15.2c-10.742,0.284-20.953,4.73-28.48,12.4c-9.921,9.111-14.507,22.656-12.16,35.92
			c1.24,7.71,3.725,15.168,7.36,22.08c-46.456,23.922-76.308,71.134-78,123.36c-6.498,5.258-10.382,13.086-10.64,21.44
			c0.01,4.961,1.365,9.827,3.92,14.08l49.92,163.52c1.056,3.498,4.349,5.836,8,5.68h186.4c3.651,0.156,6.944-2.182,8-5.68
			l50.4-164.72c1.49-4.846,2.482-9.832,2.96-14.88C353.155,205.487,349.206,198.455,343.084,193.68z M148.844,24.08
			c4.605-4.804,10.873-7.666,17.52-8c14.48,0,26.16,16,26.24,16c2.56,3.601,7.555,4.445,11.156,1.884
			c0.729-0.518,1.366-1.155,1.884-1.884c0,0,11.84-16,26.24-16c6.647,0.334,12.915,3.196,17.52,8c6.092,5.563,8.825,13.911,7.2,22
			c-3.44,24-32,56-57.52,70.24c-25.12-14.24-54.08-45.92-57.52-70.24C139.959,37.977,142.722,29.626,148.844,24.08z M111.804,382.4
			L63.084,224c-0.201-0.704-0.497-1.377-0.88-2c-1.28-1.921-1.975-4.172-2-6.48c0.803-8.3,8.083-14.443,16.4-13.84
			c8.308-0.794,15.717,5.225,16.64,13.52c0,0.56,32,166.88,32,166.88L111.804,382.4z M141.244,382.4l-31.92-167.2
			c1.033-7.944,7.999-13.761,16-13.36c8.312-0.892,15.797,5.061,16.8,13.36l19.2,167.2H141.244z M190.844,382.4h-13.36l-19.36-167.2
			c1.271-9.102,9.68-15.449,18.782-14.178c7.362,1.028,13.15,6.816,14.178,14.178L190.844,382.4z M198.924,195.84
			c-6.417-6.548-15.232-10.19-24.4-10.08c-9.192-0.068-18.01,3.633-24.4,10.24c-13.267-13.476-34.945-13.645-48.421-0.379
			c-0.127,0.125-0.254,0.252-0.379,0.379c-6.39-6.607-15.208-10.308-24.4-10.24c-1.85,0.011-3.696,0.172-5.52,0.48
			c4.211-43.826,30.65-82.412,70-102.16c14.188,19.863,32.674,36.27,54.08,48c2.264,1.141,4.936,1.141,7.2,0
			c21.379-11.738,39.837-28.145,54-48c39.212,19.78,65.546,58.284,69.76,102c-1.825-0.305-3.67-0.466-5.52-0.48
			c-9.192-0.068-18.01,3.633-24.4,10.24c-13.267-13.476-34.945-13.645-48.421-0.379c-0.127,0.125-0.254,0.252-0.379,0.379
			c-13.267-13.476-34.945-13.645-48.421-0.379C199.175,195.586,199.049,195.713,198.924,195.84z M207.084,382.4V215.2
			c1.555-9.057,10.159-15.139,19.216-13.584c6.948,1.193,12.391,6.636,13.584,13.584c0,0.48-18.88,166.88-18.88,166.88
			L207.084,382.4z M237.084,382.4c0,0,18.64-166.48,18.64-167.2c1.555-9.057,10.159-15.139,19.216-13.584
			c6.948,1.193,12.391,6.636,13.584,13.584l-31.52,167.2H237.084z M337.164,216.8c0,1.6-50.8,165.6-50.8,165.6h-13.12l31.28-167.2
			c1.395-7.976,8.303-13.806,16.4-13.84c8.347-0.649,15.677,5.506,16.48,13.84C337.404,215.2,337.244,216.4,337.164,216.8z"/>
	</g>
</g>
<g>
	<g>
		<circle cx="119.084" cy="153.28" r="12"/>
	</g>
</g>
<g>
	<g>
		<circle cx="199.084" cy="153.28" r="12"/>
	</g>
</g>
<g>
	<g>
		<circle cx="279.084" cy="153.28" r="12"/>
	</g>
</g>
<g>
</g>
<g>
</g>
<g>
</g>
<g>
</g>
<g>
</g>
<g>
</g>
<g>
</g>
<g>
</g>
<g>
</g>
<g>
</g>
<g>
</g>
<g>
</g>
<g>
</g>
<g>
</g>
<g>
</g>
</svg>
